<?xml version="1.0" encoding="utf-8"?>
<!-- Generator: Adobe Illustrator 28.1.0, SVG Export Plug-In . SVG Version: 6.00 Build 0)  -->
<svg version="1.1" id="Layer_1" xmlns="http://www.w3.org/2000/svg" xmlns:xlink="http://www.w3.org/1999/xlink" x="0px" y="0px"
	 viewBox="0 0 265.5 182" style="enable-background:new 0 0 265.5 182;" xml:space="preserve">
<style type="text/css">
	.st0{fill:#967969;}
	.st1{fill:#3F1200;}
	.st2{fill:#EEDCCC;}
	.st3{fill:#D4937C;}
	.st4{fill:#BDC399;stroke:#000000;stroke-miterlimit:10;}
	.st5{font-family:'MyriadPro-Regular';}
	.st6{font-size:12px;}
	.st7{fill:#DEE1CC;}
	.st8{fill:#EECF00;}
	.st9{fill:#26783C;}
	.st10{fill:#26A13C;}
	.st11{fill:#6B1300;}
</style>
<g>
	<rect x="0.5" y="0.5" class="st0" width="265" height="181"/>
	<path d="M265,1v180H1V1H265 M266,0H0v182h266V0L266,0z"/>
</g>
<g>
	<path class="st1" d="M22,176.5c-6.34,0-11.5-5.16-11.5-11.5V81c0-6.34,5.16-11.5,11.5-11.5h218c6.34,0,11.5,5.16,11.5,11.5v84
		c0,6.34-5.16,11.5-11.5,11.5H22z"/>
	<path d="M240,70c6.07,0,11,4.93,11,11v84c0,6.07-4.93,11-11,11H22c-6.07,0-11-4.93-11-11V81c0-6.07,4.93-11,11-11H240 M240,69H22
		c-6.6,0-12,5.4-12,12v84c0,6.6,5.4,12,12,12h218c6.6,0,12-5.4,12-12V81C252,74.4,246.6,69,240,69L240,69z"/>
</g>
<g>
	<path class="st2" d="M31,171c-6.34,0-11.5-5.16-11.5-11.5V90c0-6.34,5.16-11.5,11.5-11.5h201c6.34,0,11.5,5.16,11.5,11.5v69.5
		c0,6.34-5.16,11.5-11.5,11.5H31z"/>
	<path d="M232,79c6.07,0,11,4.93,11,11v69.5c0,6.07-4.93,11-11,11H31c-6.07,0-11-4.93-11-11V90c0-6.07,4.93-11,11-11H232 M232,78H31
		c-6.6,0-12,5.4-12,12v69.5c0,6.6,5.4,12,12,12h201c6.6,0,12-5.4,12-12V90C244,83.4,238.6,78,232,78L232,78z"/>
</g>
<path class="st3" d="M167.5,89.5h-71c-6.6,0-12,5.4-12,12v58c0,6.6,5.4,12,12,12h71c6.6,0,12-5.4,12-12c0-5.76,0-11.51,0-17.27
	c0-13.58,0-27.15,0-40.73C179.5,100.69,179.4,96.45,167.5,89.5z"/>
<ellipse class="st4" cx="132" cy="159" rx="104.5" ry="12.5"/>
<text transform="matrix(1 0 0 1 88.3503 162.522)" class="st5 st6">Banana Cork Cafe</text>
<ellipse class="st7" cx="132" cy="98" rx="39.5" ry="8.5"/>
<ellipse class="st3" cx="180" cy="124.5" rx="19" ry="19.5"/>
<circle class="st2" cx="183" cy="124" r="8"/>
<rect x="166" y="112" class="st3" width="14" height="23"/>
<g>
	<g>
		<path class="st8" d="M114.25,103.88c6.41-12.02,12.86-24.2,16.72-37.32c3.64-12.37,5.75-27.28-0.24-39.27
			c-2.95-5.89-7.84-10.78-13.7-13.78c0.1,0.79,0.2,1.57,0.3,2.36c2.13-1.74,4.27-3.48,6.4-5.23c0.66-0.54,1.93-1.9,2.9-1.62
			c0.89,0.26,1.52,1.78,1.96,2.48c2.65,4.19,5.31,8.39,8.5,12.19c3.23,3.84,7.27,6.7,10.83,10.18c3.2,3.14,5.63,6.99,7.24,11.17
			c3.34,8.67,3.7,18.26,2.73,27.41c-0.54,5.13-1.61,10.22-3.12,15.15c-0.75,2.46-1.62,4.89-2.61,7.27c-0.47,1.14-0.98,2.26-1.5,3.38
			c-0.53,1.11-1.02,2.41-1.87,3.32c-0.86,0.92-2.12,1.13-3.31,1.32c-1.59,0.24-3.2,0.41-4.8,0.56c-2.97,0.28-5.94,0.44-8.92,0.47
			c-6.23,0.08-12.45-0.37-18.6-1.36c-1.89-0.3-2.7,2.59-0.8,2.89c5.86,0.94,11.78,1.46,17.71,1.48c3.06,0.01,6.12-0.11,9.17-0.36
			c2.72-0.22,5.58-0.38,8.23-1.02c2.66-0.64,4.12-2.41,5.28-4.78c1.22-2.49,2.32-5.05,3.3-7.65c1.96-5.25,3.39-10.69,4.25-16.23
			c1.57-10.08,1.67-20.83-1.53-30.63c-1.5-4.58-3.75-8.9-6.89-12.57c-3.54-4.13-8.2-7.08-11.81-11.15c-2-2.25-3.77-4.7-5.44-7.21
			c-1.61-2.41-3-5.01-4.74-7.33c-1.88-2.51-4.54-2.4-6.92-0.61c-2.66,2.01-5.19,4.22-7.78,6.33c-0.73,0.6-0.5,1.94,0.3,2.36
			c25.07,12.86,15.21,46.71,6.05,66.7c-3.05,6.65-6.47,13.11-9.91,19.57C110.75,104.06,113.34,105.58,114.25,103.88L114.25,103.88z"
			/>
	</g>
</g>
<g>
	<g>
		<path class="st8" d="M124.79,10.36c4.58,5.96,9.04,12,13.39,18.13c1.11,1.56,3.71,0.06,2.59-1.51
			c-4.35-6.13-8.81-12.17-13.39-18.13c-0.49-0.64-1.29-0.98-2.05-0.54C124.69,8.67,124.29,9.71,124.79,10.36L124.79,10.36z"/>
	</g>
</g>
<g>
	<g>
		<path class="st8" d="M139.12,29.45c3.67,3.83,8.21,6.95,11.2,11.4c2.79,4.15,4.19,9.05,4.79,13.98c0.64,5.2,0.53,10.49,0.21,15.71
			c-0.32,5.29-0.99,10.57-2.28,15.72c-1.45,5.78-3.71,11.3-7.05,16.26c0.86,0,1.73,0,2.59,0c-1.22-2.04-3.57-2.01-5.67-1.85
			c-3.05,0.24-6.1,0.41-9.15,0.52c-6.11,0.21-12.22,0.13-18.33-0.2c-1.93-0.1-1.92,2.9,0,3c5.44,0.29,10.9,0.39,16.35,0.25
			c2.64-0.06,5.28-0.18,7.92-0.35c1.37-0.09,2.74-0.22,4.11-0.3c0.63-0.04,1.8-0.21,2.18,0.43c0.6,1.01,1.97,0.92,2.59,0
			c6.24-9.27,8.73-20.38,9.6-31.38c0.82-10.44,1.09-22.21-4.22-31.61c-3.14-5.56-8.38-9.19-12.72-13.71
			C139.9,25.94,137.79,28.06,139.12,29.45L139.12,29.45z"/>
	</g>
</g>
<g>
	<g>
		<path class="st8" d="M117.15,102.89c0.62-1.62,1.24-3.24,2.05-4.78c0.84-1.61,1.97-2.94,3.05-4.38c2.01-2.68,2.82-5.96,3.83-9.09
			c2.19-6.76,7.26-12.16,8.86-19.18c0.34-1.52-1.37-2.42-2.51-1.46c-2.38,2.02-4.33,4.49-5.75,7.26c-0.48,0.94,0.09,2.35,1.3,2.26
			c1.62-0.12,3.11-0.74,4.18-1.99c1.23-1.43,1.45-3.27,1.73-5.07c0.66-4.27,1.32-8.55,1.98-12.82c0.29-1.89-2.6-2.7-2.89-0.8
			c-0.53,3.45-1.06,6.9-1.6,10.35c-0.24,1.56-0.4,3.16-0.75,4.7c-0.32,1.38-1.13,2.5-2.64,2.62c0.43,0.75,0.86,1.5,1.3,2.26
			c1.32-2.58,3.08-4.79,5.29-6.66c-0.84-0.49-1.67-0.97-2.51-1.46c-1.59,6.99-6.67,12.42-8.86,19.18c-1.08,3.32-1.96,6.4-4.18,9.18
			c-2.19,2.74-3.5,5.82-4.75,9.08C113.56,103.89,116.46,104.67,117.15,102.89L117.15,102.89z"/>
	</g>
</g>
<g>
	<g>
		<path class="st8" d="M136.07,52.98c1.3-4.63,2.41-9.61,0.13-14.12c-0.7-1.38-2.77-0.66-2.8,0.76c-0.04,1.94-0.29,3.83-0.75,5.71
			c-0.47,1.88,2.3,2.63,2.89,0.8c1.1-3.42,0.96-6.99,0.32-10.49c-0.33-1.79-0.79-3.56-1.28-5.31c-0.44-1.58-0.86-3.17-1.9-4.47
			c-0.96-1.21-2.14-2.22-3.08-3.45c-0.88-1.15-1.67-2.37-2.52-3.54c-1.66-2.32-3.49-4.52-6.04-5.91c-1.7-0.92-3.21,1.67-1.51,2.59
			c2.25,1.23,3.82,3.21,5.28,5.27c1.53,2.17,3.03,4.3,4.89,6.21c1.12,1.15,1.5,2.37,1.93,3.88c0.43,1.53,0.85,3.07,1.17,4.63
			c0.68,3.26,0.89,6.58-0.15,9.79c0.96,0.27,1.93,0.53,2.89,0.8c0.53-2.14,0.82-4.31,0.86-6.51c-0.93,0.25-1.86,0.5-2.8,0.76
			c1.87,3.7,0.62,8.06-0.43,11.81C132.65,54.04,135.54,54.83,136.07,52.98L136.07,52.98z"/>
	</g>
</g>
<g>
	<g>
		<path class="st8" d="M120.77,15.42c2.1-1.01,4.12-2.16,6.06-3.45c1.33-0.89,0.53-3.37-1.16-2.74c-2.02,0.75-5.51,3.38-4,5.93
			c0.6,1.01,1.82,1.36,2.93,1.2c1.38-0.2,2.06-1.44,3.31-1.8c1.48-0.43,1.37-2.41,0-2.89c-1.45-0.51-2.95,0.1-3.87,1.28
			c-0.77,0.98-1.68,2.71-1.06,3.95c0.61,1.21,2.25,1.49,3.45,1.31c1.37-0.21,2.5-1.01,3.2-2.2c0.49-0.83,0.04-1.95-0.9-2.2
			c-1.66-0.45-3.24,0.44-3.94,1.98c-0.62,1.38-0.93,3.64,0.37,4.72c1.22,1.02,2.84,0.55,4.13-0.06c1.38-0.65,3.34-1.7,2.41-3.53
			c-1.53-3.01-6.25-1.24-5.98,1.91c0.33,3.77,5.57,3.43,5.93-0.15c0.05-0.53-0.33-1.02-0.74-1.3c-2.29-1.51-4.69,2.18-4.27,4.21
			c0.59,2.87,3.79,2.55,5.5,0.85c1.64-1.63,0.68-5.13-2.01-4.41c-2.45,0.65-2.93,4.33-1.31,6c1.54,1.59,4.89,1.21,5.29-1.25
			c0.2-1.21-0.7-2.25-1.9-2.33c-1.25-0.08-2.08,0.87-2.48,1.94c-0.43,1.17-0.56,2.56,0.37,3.54c0.86,0.9,2.24,1.05,3.36,0.64
			c0.95-0.35,2.06-1.16,2.54-2.08c0.6-1.14,0.15-2.62-1.2-2.88c-2.86-0.55-4.47,3.45-3.12,5.55c1.65,2.56,5.93,1.46,5.65-1.74
			c-0.05-0.62-0.42-1.31-1.1-1.45c-2.93-0.59-5.88,2.25-4.02,5.11c0.82,1.26,2.39,1.68,3.74,1.09c1.15-0.51,2.14-1.84,1.64-3.12
			c-0.57-1.48-2.44-1.57-3.45-0.48c-0.87,0.94-1.54,2.61-1.41,3.89c0.17,1.76,1.9,2.02,3.35,1.8c1.64-0.25,3.11-1.08,4.21-2.31
			c0.69-0.77,0.52-2.29-0.66-2.51c-2.13-0.4-4.78-0.13-5.79,2.1c-0.88,1.94,0.11,4.63,2.46,4.75c2.05,0.1,4.82-2.06,3.59-4.31
			c-1.18-2.17-4.5-1.11-6.04,0.05c-2.09,1.58-2.26,4.17,0.17,5.54c1.83,1.03,4.23,0.76,5.88-0.47c1.62-1.21,2.83-4.07,0.25-5
			c-2.12-0.76-4.97,0.56-6.26,2.26c-0.77,1.01-1.15,2.39-0.48,3.56c0.66,1.16,1.95,1.51,3.19,1.64c2.85,0.31,5.97-1.16,5.99-4.38
			c0-0.63-0.47-1.31-1.1-1.45c-2.16-0.47-4.39-0.04-6.18,1.28c-1.48,1.09-3.75,3.75-2.08,5.57c1.48,1.6,5.15,0.85,6.88,0.13
			c2.22-0.93,3.94-3.04,3.77-5.54c-0.13-1.92-3.13-1.93-3,0c0.08,1.24-0.65,2.19-1.75,2.7c-0.61,0.28-1.27,0.42-1.94,0.49
			c-0.18,0.02-1.93-0.09-1.99,0c0.17,0.21,0.34,0.43,0.52,0.64c0.05-0.1,0.11-0.2,0.16-0.3c0.16-0.13,0.33-0.48,0.48-0.65
			c0.34-0.38,0.73-0.68,1.17-0.93c0.96-0.54,2.07-0.73,3.16-0.5c-0.37-0.48-0.73-0.96-1.1-1.45c-0.01,1.13-1.24,1.45-2.17,1.44
			c-0.17,0-1.33-0.01-1.4-0.21c-0.01-0.03,0.65-0.66,0.77-0.74c0.41-0.3,0.89-0.52,1.39-0.65c0.16-0.04,0.63-0.03,0.74-0.12
			c0.06,0,0.11,0,0.17,0c-0.15-0.25-0.3-0.49-0.45-0.74c-0.11,0.02-0.57,0.59-0.74,0.69c-0.34,0.2-0.72,0.31-1.1,0.35
			c-0.34,0.03-0.71,0.01-1.03-0.12c-0.17-0.06-0.32-0.21-0.48-0.26c-0.21-0.08-0.22,0.19-0.11,0.05c0.3-0.37,0.7-0.65,1.14-0.84
			c0.23-0.1,0.47-0.18,0.71-0.22c0.47-0.09,0.6,0.13,0.33-0.45c-0.4-0.88-0.05-0.26-0.38-0.23c-0.08,0.01-0.52,0.18-0.45,0.23
			c0.03,0.02-0.07-0.3-0.02-0.47c0.24-0.82,1.69-0.67,2.31-0.55c-0.22-0.84-0.44-1.67-0.66-2.51c-0.72,0.81-1.6,1.38-2.69,1.5
			c-0.51,0.06-0.75-0.2-0.16,0.45c0.63,0.7,0.28,0.41,0.49,0.01c0.11-0.21,0.15-0.47,0.26-0.69c0.05-0.11,0.11-0.22,0.18-0.33
			c0.29-0.39,0-0.4-0.85-0.03c-0.23-0.3-0.46-0.6-0.69-0.9c0.02,0.04-0.03-0.57-0.03-0.38c0,0.07,0-0.2-0.01-0.17
			c0.11-0.36,0.35-0.52,0.78-0.43c-0.37-0.48-0.73-0.96-1.1-1.45c0.05,0.52-0.22,0.06-0.23-0.14c-0.01-0.2,0.26-0.72,0.5-0.69
			c-0.35-0.15-0.71-0.29-1.06-0.44c0.06,0.05,0.11,0.11,0.17,0.16c-0.15-0.35-0.29-0.71-0.44-1.06c-0.04-0.37-0.78,0.82-0.97,0.56
			c0.19,0.11,0.27,0,0.24-0.34c0.16-0.33,0-0.32-0.46,0.03c-0.3-0.23-0.6-0.46-0.9-0.69c-0.05-0.07,0.11-0.71,0.07-0.79
			c-0.08-0.2-0.24,0.09-0.32-0.2c-0.17-0.62,0.63-1.58-0.88-1.38c-0.19,0.02-0.31,0.07-0.48,0.19c-0.11,0.06-0.22,0.11-0.33,0.17
			c0.11,0.07,0.22,0.13,0.34,0.2c0.15-0.09,0.23-0.46,0.34-0.63c0.06-0.11,0.14-0.21,0.22-0.3c0.3-0.3,0.06-0.33-0.72-0.09
			c-0.25-0.43-0.5-0.86-0.74-1.3c0.01-0.13-0.06-0.05,0.07-0.25c0.06-0.01,0.12-0.02,0.18-0.03c0.36,0.13,0.47-0.1,0.33-0.69
			c0.24-1.24-0.17-0.52-0.84-0.16c-0.3,0.16-0.65,0.26-0.93,0.45c-0.12,0.05-0.25,0.08-0.37,0.1c-0.19,0.02-0.13,0.07,0.21,0.15
			c0.15-0.28,0-1.72,0.64-1.55c-0.3-0.73-0.6-1.47-0.9-2.2c-0.19,0.33-0.41,0.56-0.78,0.69c-0.11,0.04-0.78,0.06-0.77,0.05
			c0.15,0.74,0.28,0.9,0.4,0.51c0.07-0.17,0.14-0.34,0.23-0.51c0.23-0.43,0.46-0.86,0.99-0.67c0-0.96,0-1.93,0-2.89
			c-0.59,0.17-1.09,0.43-1.58,0.79c-0.36,0.27-1.06,0.63-1.33,0.94c-0.04,0.01-0.08,0.02-0.13,0.01c-0.25-0.02-0.15,0.14,0.31,0.48
			c0.05,0,0.45-0.64,0.51-0.7c0.43-0.48,0.97-0.84,1.57-1.06c-0.39-0.91-0.77-1.83-1.16-2.74c-1.94,1.3-3.95,2.45-6.06,3.45
			C117.52,13.66,119.04,16.25,120.77,15.42L120.77,15.42z"/>
	</g>
</g>
<g>
	<g>
		<path class="st8" d="M133.92,38.46c3.32,7.36-2.07,16.51-2.82,23.89c-0.83,8.08-4.84,14.86-6.5,22.72
			c-1.32,6.28,8.32,8.96,9.64,2.66c0.98-4.67,2.97-8.93,4.57-13.4c1.69-4.72,1.59-9.35,2.63-14.15c1.98-9.13,5.24-17.62,1.11-26.77
			C139.91,27.56,131.29,32.64,133.92,38.46L133.92,38.46z"/>
	</g>
</g>
<g>
	<g>
		<path class="st8" d="M125.09,84.29c-2.48,4.25-4.97,8.49-7.45,12.74c-2.1,3.6,1.42,8.78,5.65,7.34c3.2-1.09,6.69-0.54,10.01-0.33
			c3.99,0.26,7.97,0.6,11.95,0.95c6.41,0.55,6.37-9.45,0-10c-7.62-0.66-17.18-2.79-24.62-0.26c1.88,2.45,3.76,4.9,5.65,7.34
			c2.48-4.25,4.97-8.49,7.45-12.74C136.98,83.77,128.34,78.73,125.09,84.29L125.09,84.29z"/>
	</g>
</g>
<g>
	<g>
		<path class="st8" d="M137.55,37.99c12.74,15.65,7.28,37.4-0.21,54.04c-1.19,2.64-0.5,6.74,2.99,7.34
			c4.23,0.73,9.04,0.43,11.28-3.91c0.92-1.78,0.95-3.95,1.6-5.85c0.93-2.76,1.91-5.3,2.43-8.19c1.97-10.94,3.14-23.69-0.48-34.37
			c-2.05-6.06-11.72-3.46-9.64,2.66c2.46,7.26,1.85,14.7,1.23,22.21c-0.31,3.81-0.69,7.58-1.8,11.26c-0.45,1.49-1.17,2.89-1.61,4.38
			c-0.25,0.6-0.42,1.22-0.52,1.86c-0.31,1.66-0.26,1.77,0.17,0.31c1,2.45,1.99,4.9,2.99,7.34c9.59-21.31,14.64-46.52-1.36-66.16
			C140.56,25.93,133.52,33.04,137.55,37.99L137.55,37.99z"/>
	</g>
</g>
<g>
	<g>
		<path class="st8" d="M137.78,47.65c-0.99,10.82-2.49,21.92-5.59,32.37c-1.11,3.74-5.18,8.63-4.19,12.64
			c1.01,4.09,4.96,4.68,8.47,4.17c6.35-0.91,3.65-10.55-2.66-9.64c-0.46,0.07-0.91,0.13-1.37,0.2c1.28,0.17,2.57,0.34,3.85,0.5
			c0.28,0.31,0.56,0.61,0.84,0.92c0.17,1.28,0.34,2.57,0.5,3.85c1.12-3.42,3.14-6.48,4.19-9.98c1.14-3.84,1.94-7.82,2.7-11.76
			c1.49-7.69,2.54-15.47,3.25-23.27C148.36,41.25,138.36,41.29,137.78,47.65L137.78,47.65z"/>
	</g>
</g>
<g>
	<g>
		<path class="st9" d="M148.29,105.33c10.4-10.07,26.02-14.02,39.97-10.14c1.86,0.52,2.66-2.38,0.8-2.89
			c-14.97-4.17-31.72,0.11-42.88,10.91C144.78,104.56,146.9,106.68,148.29,105.33L148.29,105.33z"/>
	</g>
</g>
<g>
	<g>
		<path class="st9" d="M146.77,103.51c-2.99-6.65-9.3-10.9-15.94-13.38c-7.69-2.87-16.09-4.16-24.2-5.15c-1.91-0.23-1.9,2.77,0,3
			c7.56,0.92,15.35,2.2,22.56,4.74c6.27,2.21,12.18,6.06,14.99,12.31C144.97,106.79,147.56,105.26,146.77,103.51L146.77,103.51z"/>
	</g>
</g>
<g>
	<g>
		<path class="st9" d="M145.78,106.09c0.52,0,1.04,0,1.57,0c0.21,0.01,0.4-0.04,0.58-0.13c0.19-0.06,0.35-0.16,0.48-0.31
			c0.15-0.14,0.25-0.3,0.31-0.48c0.09-0.18,0.14-0.37,0.13-0.58c-0.02-0.13-0.04-0.27-0.05-0.4c-0.07-0.25-0.2-0.47-0.39-0.66
			c-0.29-0.27-0.65-0.44-1.06-0.44c-0.52,0-1.04,0-1.57,0c-0.21-0.01-0.4,0.04-0.58,0.13c-0.19,0.06-0.35,0.16-0.48,0.31
			c-0.15,0.14-0.25,0.3-0.31,0.48c-0.09,0.18-0.14,0.37-0.13,0.58c0.02,0.13,0.04,0.27,0.05,0.4c0.07,0.25,0.2,0.47,0.39,0.66
			C145.02,105.92,145.38,106.09,145.78,106.09L145.78,106.09z"/>
	</g>
</g>
<g>
	<g>
		<path class="st10" d="M151.05,99.58c3.91-5.85,8.95-11.8,15.87-14.03c3.9-1.26,8.26-1.32,12.31-0.85c4,0.46,7.95,1.73,11.31,3.99
			c3.37,2.27,6.05,5.58,7.27,9.48c0.57,1.84,3.47,1.05,2.89-0.8c-2.57-8.25-10.2-13.59-18.43-15.21c-4.54-0.89-9.4-1.01-13.94-0.08
			c-4.01,0.82-7.64,2.83-10.77,5.42c-3.6,2.97-6.52,6.7-9.1,10.57C147.39,99.68,149.98,101.18,151.05,99.58L151.05,99.58z"/>
	</g>
</g>
<g>
	<g>
		<path class="st10" d="M150.06,102.05c16.25,2.23,32.81,1.24,48.66-3.01c1.86-0.5,1.07-3.39-0.8-2.89
			c-15.3,4.1-31.37,5.17-47.06,3.01c-0.81-0.11-1.6,0.2-1.85,1.05C148.81,100.91,149.26,101.94,150.06,102.05L150.06,102.05z"/>
	</g>
</g>
<g>
	<g>
		<path class="st10" d="M143.87,96.11c-1.3-7.34-6.65-13.34-13.13-16.71c-7.47-3.89-16.41-4.95-24.71-4.2
			c-2.51,0.23-4.99,0.64-7.44,1.2c-2.06,0.47-4.44,1.15-6.46,0.18c-0.7-0.33-1.66-0.23-2.05,0.54c-2.06,4.09,0.6,7.94,3.69,10.56
			c3.12,2.63,6.52,4.93,10.14,6.83c7.25,3.81,15.26,6.08,23.42,6.67c4.69,0.34,9.39,0.06,14.02-0.74c1.9-0.33,1.09-3.22-0.8-2.89
			c-14.31,2.48-29.45-1.04-41.3-9.4c-2.59-1.82-8.55-5.6-6.58-9.51c-0.68,0.18-1.37,0.36-2.05,0.54c3.62,1.73,7.36,0.33,11.06-0.36
			c4.28-0.8,8.67-1,13.01-0.66c7.59,0.59,15.52,2.95,20.95,8.54c2.75,2.83,4.66,6.33,5.35,10.23C141.31,98.8,144.2,98,143.87,96.11
			L143.87,96.11z"/>
	</g>
</g>
<g>
	<g>
		<path class="st10" d="M91.92,81.25c0.28,0.26,0.53,0.55,0.77,0.84c0.03,0.04,0.26,0.34,0.1,0.13c-0.16-0.22,0.07,0.09,0.1,0.13
			c0.11,0.14,0.21,0.29,0.31,0.44c0.45,0.64,0.86,1.29,1.32,1.92c0.49,0.69,1.01,1.37,1.63,1.95c0.71,0.65,1.47,1.12,2.37,1.47
			c0.73,0.29,1.68-0.32,1.85-1.05c0.2-0.86-0.26-1.54-1.05-1.85c-0.28-0.11,0.29,0.14,0.04,0.02c-0.09-0.05-0.18-0.09-0.27-0.14
			c-0.16-0.09-0.32-0.18-0.47-0.29c-0.1-0.07-0.26-0.26,0.03,0.03c-0.06-0.06-0.13-0.11-0.19-0.16c-0.13-0.11-0.25-0.23-0.37-0.34
			c-0.25-0.25-0.49-0.52-0.71-0.8c-0.21-0.26,0.11,0.15,0.02,0.03c-0.06-0.08-0.12-0.16-0.18-0.25c-0.1-0.14-0.21-0.29-0.31-0.43
			c-0.9-1.3-1.73-2.67-2.87-3.77c-0.57-0.54-1.57-0.61-2.12,0C91.38,79.72,91.31,80.67,91.92,81.25L91.92,81.25z"/>
	</g>
</g>
<g>
	<g>
		<path class="st10" d="M99.41,89.46c1.93,0,1.93-3,0-3C97.48,86.46,97.48,89.46,99.41,89.46L99.41,89.46z"/>
	</g>
</g>
<g>
	<g>
		<path class="st10" d="M99.61,89.46c1.93,0,1.93-3,0-3C97.68,86.46,97.68,89.46,99.61,89.46L99.61,89.46z"/>
	</g>
</g>
<g>
	<g>
		<path class="st10" d="M98.72,87.73c4.27,4.97,10.9,6.4,16.91,8.13c6.94,1.99,14.51,6.83,21.85,3.85c1.13-0.46,1.58-2.05,0.36-2.74
			c-9.97-5.64-20.94-9.4-32.28-11c-0.75-0.11-1.45,0.12-1.77,0.87c-0.26,0.62-0.07,1.57,0.61,1.87c8.34,3.65,16.8,7.02,25.37,10.07
			c0.27-0.96,0.53-1.93,0.8-2.89c-6.46-1.48-12.81-3.41-18.98-5.83c-2.92-1.15-5.41-2.66-7.74-4.76c-2.43-2.2-4.77-4.51-7.14-6.77
			c-1.03-0.98-3.01-0.02-2.51,1.46c0.94,2.77,2.75,5.04,5.27,6.53c0-0.86,0-1.73,0-2.59c-0.78,0.37-1.42-1.51-1.6-1.96
			c-0.4-1.03-0.84-2.1-2.01-2.43c-0.83-0.24-1.64,0.08-2.28,0.61c-0.24,0.2-0.45,0.43-0.67,0.66c-0.05,0.05-0.39,0.35-0.41,0.43
			c-0.07,0.32-0.63-0.34,0.31-0.02c0.12,0.91,0.24,1.83,0.36,2.74c2-0.98,4.13-1.37,6.34-1.26c1.15,0.05,1.85-1.31,1.3-2.26
			c-0.84-1.42-2.38-1.76-3.83-1.09c-1.56,0.72-0.45,3.22,1.16,2.74c6.74-1.99,13.86-1.9,20.55,0.23c0.27-0.96,0.53-1.93,0.8-2.89
			c-1.66-0.28-3.17-0.81-4.63-1.65c-0.25,0.93-0.5,1.86-0.76,2.8c5.4,0.35,10.4,1.32,15.09,4.17c4.22,2.56,7.68,6.19,10.04,10.53
			c0.92,1.7,3.52,0.18,2.59-1.51c-2.6-4.77-6.48-8.78-11.12-11.6c-5.14-3.12-10.68-4.19-16.6-4.58c-1.52-0.1-2,2.08-0.76,2.8
			c1.67,0.96,3.45,1.62,5.35,1.95c1.88,0.32,2.67-2.3,0.8-2.89c-7.18-2.29-14.92-2.36-22.15-0.23c0.39,0.91,0.77,1.83,1.16,2.74
			c-0.09,0.01-0.18,0.01-0.27,0.02c0.43-0.75,0.86-1.5,1.3-2.26c-2.75-0.13-5.39,0.47-7.86,1.67c-1.24,0.61-0.77,2.36,0.36,2.74
			c0.98,0.33,1.89-0.08,2.6-0.76c0.17-0.15,0.79-0.66,0.82-0.87c0.03-0.04,0.08-0.08,0.12-0.11c-0.27-0.04-0.54-0.08-0.81-0.12
			c-0.03,0.06,0.39,0.96,0.42,1.04c0.97,2.41,3.06,4.53,5.8,3.23c1.05-0.5,0.91-2.06,0-2.59c-1.83-1.08-3.21-2.71-3.9-4.73
			c-0.84,0.49-1.67,0.97-2.51,1.46c2.48,2.36,4.91,4.79,7.47,7.07c2.39,2.12,4.96,3.7,7.92,4.91c6.4,2.61,13.06,4.62,19.79,6.16
			c1.9,0.43,2.61-2.25,0.8-2.89c-8.33-2.97-16.55-6.23-24.65-9.77c-0.39,0.91-0.77,1.83-1.16,2.74c11.1,1.57,21.81,5.18,31.57,10.7
			c0.12-0.91,0.24-1.83,0.36-2.74c-3.47,1.41-7.1,0.73-10.54-0.44c-3.26-1.11-6.41-2.47-9.72-3.42c-5.53-1.58-11.67-2.79-15.59-7.36
			C99.58,84.14,97.47,86.27,98.72,87.73L98.72,87.73z"/>
	</g>
</g>
<g>
	<g>
		<path class="st10" d="M132.92,96.36c-1.35-1.01-3.04-1.1-4.67-1.19c-1.99-0.11-3.97-0.17-5.97,0c-0.95,0.08-1.93,0.21-2.88,0.09
			c-0.9-0.12-1.75-0.46-2.59-0.8c-1.88-0.77-3.75-1.58-5.62-2.37c-0.75-0.32-1.64,0.34-1.85,1.05c-0.25,0.86,0.3,1.53,1.05,1.85
			c3.36,1.42,6.89,3.51,10.65,3.29c1.87-0.11,3.69-0.26,5.56-0.19c1.56,0.06,3.48-0.12,4.8,0.86c0.65,0.49,1.67,0.1,2.05-0.54
			C133.91,97.65,133.56,96.84,132.92,96.36L132.92,96.36z"/>
	</g>
</g>
<g>
	<g>
		<path class="st10" d="M101.21,83.25c1.2-0.2,2.06,1.26,1.75,2.28c0.84-0.22,1.67-0.44,2.51-0.66c-1.44-1.21-2.31-2.79-2.4-4.69
			c-0.98,0.13-1.96,0.27-2.95,0.4c0.44,1.31,0.7,2.62,0.75,4c0.04,1.3,1.61,1.98,2.56,1.06c0.92-0.89,2.23-1.07,3.35-0.45
			c-0.23-0.56-0.46-1.13-0.69-1.69c0.39-0.05,0.78-0.11,1.17-0.16c-0.3,0.73-0.6,1.47-0.9,2.2c2.58-0.58,5.67,0.46,8.19,1.02
			c2.73,0.6,5.44,1.3,8.13,2.09c5.39,1.59,10.67,3.56,15.78,5.9c1.74,0.8,3.27-1.79,1.51-2.59c-5.49-2.51-11.15-4.65-16.95-6.33
			c-2.84-0.82-5.7-1.54-8.59-2.15c-2.86-0.61-5.96-1.48-8.87-0.82c-1,0.22-1.31,1.38-0.9,2.2c0.93,1.83,3.87,1.44,4.31-0.56
			c0.14-0.64-0.09-1.36-0.69-1.69c-2.31-1.27-5.09-0.91-6.99,0.92c0.85,0.35,1.71,0.71,2.56,1.06c-0.05-1.64-0.33-3.24-0.85-4.8
			c-0.52-1.53-3.03-1.38-2.95,0.4c0.12,2.65,1.24,5.1,3.28,6.81c0.87,0.73,2.15,0.48,2.51-0.66c1.06-3.38-2.1-6.52-5.44-5.97
			C98.51,80.68,99.32,83.57,101.21,83.25L101.21,83.25z"/>
	</g>
</g>
<g>
	<g>
		<path class="st10" d="M136.1,88.65c-8.65-7.73-20.53-8.51-31.57-8.95c-1.95-0.08-1.89,2.83,0,3c8.86,0.81,17.54,3.01,25.74,6.44
			c0.75,0.31,1.64-0.34,1.85-1.05c0.25-0.86-0.3-1.53-1.05-1.85c-8.46-3.54-17.4-5.71-26.54-6.54c0,1,0,2,0,3
			c10.16,0.41,21.46,0.93,29.45,8.08C135.41,92.05,137.54,89.94,136.1,88.65L136.1,88.65z"/>
	</g>
</g>
<g>
	<g>
		<path class="st10" d="M153.51,98.03c1.8-2.25,4.2-3.61,7.06-4.01c-0.39-0.91-0.77-1.83-1.16-2.74c-1.79,0.81-3.59,1.62-5.38,2.43
			c-1.47,0.66-0.58,2.71,0.76,2.8c2.03,0.13,3.84-0.77,5.5-1.84c1.55-1,3.16-2.39,5.09-2.49c1.92-0.1,1.93-3.1,0-3
			c-2.04,0.1-3.75,1.09-4.83,2.83c-0.68,1.09,0.45,2.61,1.69,2.2c10.68-3.45,22.49-2.76,32.64,2.05c1.18,0.56,3.07-0.74,2.05-2.05
			c-4.72-6.13-12.48-7.55-19.8-7.6c-3.93-0.03-7.91-0.08-11.83,0.1c-3.27,0.15-6.59,0.83-8.93,3.29c-1.12,1.18,0.05,2.7,1.46,2.51
			c2.78-0.38,4.59-2.61,7.01-3.75c2.64-1.24,5.74-1.29,8.6-1.45c3.09-0.18,6.27-0.28,9.25,0.69c2.81,0.91,5.16,2.84,8.01,3.69
			c0.27-0.96,0.53-1.93,0.8-2.89c-1.44-0.28-2.57-0.9-3.55-2c-0.35,0.85-0.71,1.71-1.06,2.56c1.41-0.08,2.54,0.54,3.2,1.8
			c0.9,1.71,3.49,0.19,2.59-1.51c-1.12-2.12-3.39-3.42-5.79-3.28c-1.32,0.08-1.95,1.57-1.06,2.56c1.29,1.44,2.97,2.4,4.87,2.77
			c1.88,0.36,2.67-2.34,0.8-2.89c-2.98-0.88-5.44-2.94-8.44-3.82c-3.11-0.91-6.42-0.85-9.62-0.67c-3.01,0.17-6.15,0.28-8.99,1.38
			c-2.59,1-4.63,3.55-7.42,3.93c0.49,0.84,0.97,1.67,1.46,2.51c2-2.12,4.98-2.39,7.74-2.44c3.47-0.06,6.95-0.08,10.42-0.07
			c6.2,0,13.6,0.8,17.69,6.11c0.68-0.68,1.37-1.37,2.05-2.05c-10.87-5.16-23.49-6.06-34.96-2.35c0.56,0.73,1.13,1.47,1.69,2.2
			c0.51-0.82,1.27-1.29,2.24-1.34c0-1,0-2,0-3c-2.08,0.11-3.81,1.05-5.51,2.18c-1.55,1.02-3.12,2.28-5.08,2.16
			c0.25,0.93,0.5,1.86,0.76,2.8c1.79-0.81,3.59-1.62,5.38-2.43c0.68-0.31,0.88-1.25,0.61-1.87c-0.31-0.75-1.02-0.97-1.77-0.87
			c-3.28,0.46-6.31,2.19-8.38,4.78C150.2,97.4,152.3,99.54,153.51,98.03L153.51,98.03z"/>
	</g>
</g>
<g>
	<g>
		<path class="st10" d="M196.62,94.27c-6.56,1.64-13.06,2.08-19.79,2.16c-6.57,0.08-13.06,2.3-19.64,1.59
			c0.13,0.98,0.27,1.96,0.4,2.95c5.48-2.08,11.24-3.3,17.1-3.51c2.84-0.1,5.64,0.1,8.47,0.31c2.91,0.22,5.85,0.26,8.66-0.67
			c1.86-0.62,1.09-3.2-0.8-2.89c-4.62,0.76-8.93,0.06-13.5-0.59c-4.57-0.64-9.08-0.26-13.62,0.36c0.27,0.96,0.53,1.93,0.8,2.89
			c6.87-1.92,14.09-2.15,21.06-0.62c-0.22-0.84-0.44-1.67-0.66-2.51c-1.89,2.18-4.76,2.84-7.53,3.09c-3.3,0.29-6.67,0.24-9.78,1.52
			c-1.41,0.58-1.45,3.09,0.4,2.95c4.6-0.36,9.2-0.67,13.79-1.07c3.91-0.34,7.95-0.93,11.21-3.31c1.54-1.13,0.05-3.73-1.51-2.59
			c-3.06,2.24-6.83,2.67-10.51,2.97c-4.32,0.34-8.65,0.67-12.97,1c0.13,0.98,0.27,1.96,0.4,2.95c6.02-2.49,13.87,0.12,18.64-5.38
			c0.69-0.8,0.52-2.25-0.66-2.51c-7.49-1.64-15.26-1.44-22.65,0.62c-1.92,0.54-1.05,3.14,0.8,2.89c4.69-0.64,9.27-0.83,13.95-0.06
			c4.45,0.74,8.7,1.02,13.18,0.28c-0.27-0.96-0.53-1.93-0.8-2.89c-2.78,0.93-5.66,0.74-8.55,0.51c-2.9-0.23-5.79-0.37-8.71-0.22
			c-5.81,0.31-11.55,1.51-16.98,3.57c-1.62,0.61-1.3,2.76,0.4,2.95c6.74,0.73,13.4-1.55,20.13-1.6c6.81-0.05,13.47-0.61,20.1-2.27
			C199.29,96.7,198.5,93.8,196.62,94.27L196.62,94.27z"/>
	</g>
</g>
<g>
	<g>
		<path class="st9" d="M143.6,98.34c-1.59-1.4-3.19-2.81-4.78-4.21c-0.3-0.26-0.65-0.44-1.06-0.44c-0.37,0-0.81,0.16-1.06,0.44
			c-0.52,0.57-0.63,1.57,0,2.12c1.59,1.4,3.19,2.81,4.78,4.21c0.3,0.26,0.65,0.44,1.06,0.44c0.37,0,0.81-0.16,1.06-0.44
			C144.12,99.9,144.23,98.9,143.6,98.34L143.6,98.34z"/>
	</g>
</g>
<g>
	<g>
		<path class="st9" d="M150.8,102.99c10.8-6.89,23.96-9.86,36.67-8.07c0.81,0.11,1.6-0.2,1.85-1.05c0.2-0.7-0.25-1.73-1.05-1.85
			c-13.52-1.91-27.46,1.01-38.98,8.37C147.66,101.43,149.17,104.03,150.8,102.99L150.8,102.99z"/>
	</g>
</g>
<g>
	<g>
		<path class="st9" d="M152.11,99.28c4.32-1.83,8.7-3.49,13.14-4.99c0.45-0.15,0.26-0.88-0.2-0.72c-4.5,1.52-8.94,3.21-13.32,5.07
			C151.29,98.82,151.67,99.47,152.11,99.28L152.11,99.28z"/>
	</g>
</g>
<g>
	<g>
		<path class="st10" d="M164.03,91.08c1.42,0.99,3.18,0.66,4.77,0.42c0.19-0.03,0.23-0.03,0.12-0.02c0.11-0.01,0.23-0.03,0.34-0.04
			c0.17-0.02,0.35-0.04,0.52-0.05c0.46-0.04,0.92-0.07,1.38-0.09c0.87-0.03,1.74-0.02,2.6,0.04c0.78,0.05,1.53-0.73,1.5-1.5
			c-0.04-0.85-0.66-1.45-1.5-1.5c-1.62-0.1-3.24-0.05-4.85,0.15c-0.45,0.06-0.91,0.12-1.36,0.19c-0.03,0-0.48,0.06-0.16,0.03
			c-0.19,0.02-0.37,0.04-0.56,0.05c-0.14,0.01-0.28,0.01-0.42,0.01c-0.09,0-0.6-0.09-0.27-0.01c-0.13-0.03-0.26-0.06-0.38-0.1
			c0.3,0.1-0.16-0.11-0.23-0.16c-0.65-0.45-1.69-0.14-2.05,0.54C163.08,89.79,163.34,90.6,164.03,91.08L164.03,91.08z"/>
	</g>
</g>
<g>
	<g>
		<path class="st10" d="M151.69,98.94c1.5-1.2,3.27-2.01,5.15-2.41c0.47-0.1,0.27-0.82-0.2-0.72c-2.01,0.43-3.88,1.33-5.48,2.6
			c-0.16,0.13-0.13,0.4,0,0.53C151.31,99.1,151.53,99.07,151.69,98.94L151.69,98.94z"/>
	</g>
</g>
<g>
	<g>
		<path class="st10" d="M152.7,98.92c5.97-3.22,12.57-5.31,19.32-6.01c1.76-0.18,3.53-0.26,5.3-0.31c1.71-0.04,3.52-0.21,5.21,0.01
			c1.53,0.2,2.94,0.96,4.42,1.36c1.57,0.42,3.19,0.64,4.61,1.47c1.67,0.97,3.19-1.62,1.51-2.59c-1.48-0.86-3.1-1.22-4.74-1.62
			c-1.61-0.39-3.12-1.16-4.75-1.47c-1.89-0.35-3.87-0.21-5.78-0.17c-1.93,0.04-3.87,0.12-5.79,0.32
			c-7.31,0.75-14.37,2.94-20.84,6.42C149.49,97.25,151,99.84,152.7,98.92L152.7,98.92z"/>
	</g>
</g>
<g>
	<g>
		<path class="st10" d="M137.12,93.72c1.21,0.77,2.5,1.38,3.84,1.9c0.34,0.13,0.85,0.03,1.16-0.15c0.31-0.18,0.61-0.54,0.69-0.9
			c0.09-0.38,0.07-0.82-0.15-1.16c-0.22-0.35-0.51-0.54-0.9-0.69c-0.2-0.08-0.4-0.16-0.59-0.24c0.12,0.05,0.24,0.1,0.36,0.15
			c-1-0.42-1.97-0.93-2.89-1.51c-0.66-0.42-1.68-0.16-2.05,0.54C136.19,92.4,136.41,93.27,137.12,93.72L137.12,93.72z"/>
	</g>
</g>
<g>
	<g>
		<path class="st10" d="M129.63,96.17c0.67,0.11,1.33,0.27,1.98,0.48c0.32,0.1,0.64,0.22,0.96,0.34c0.16,0.07,0.16,0.06,0,0
			c0.08,0.03,0.16,0.07,0.23,0.1c0.13,0.06,0.25,0.12,0.38,0.18c0.27,0.13,0.53,0.28,0.78,0.45c0.05,0.03,0.48,0.35,0.21,0.14
			c0.13,0.1,0.26,0.21,0.39,0.32c0.23,0.2,0.47,0.4,0.69,0.62c0.05,0.05,0.1,0.1,0.15,0.16c0.11,0.13,0.1,0.11-0.03-0.05
			c0.09,0.04,0.23,0.52,0.09,0.12c0.26,0.74,1.04,1.31,1.85,1.05c0.73-0.24,1.33-1.05,1.05-1.85c-0.28-0.81-0.79-1.4-1.43-1.96
			c-0.63-0.54-1.27-1.08-2.01-1.47c-1.39-0.74-2.93-1.25-4.48-1.51c-0.77-0.13-1.65,0.2-1.85,1.05
			C128.42,95.05,128.8,96.02,129.63,96.17L129.63,96.17z"/>
	</g>
</g>
<g>
	<g>
		<path class="st11" d="M130.06,8.67c-0.53-1.36-1.61-2.41-3.07-2.72c-1.74-0.37-3.01,0.47-4.35,1.46
			c-2.76,2.04-5.41,4.22-7.94,6.55c-0.6,0.55-0.56,1.57,0,2.12c0.59,0.59,1.52,0.55,2.12,0c1.98-1.82,4.03-3.57,6.17-5.2
			c0.51-0.39,1.03-0.78,1.55-1.16c0.43-0.31,0.88-0.73,1.41-0.86c-0.04,0.01,0.37,0.01,0.24-0.01c0.1,0.02,0.21,0.05,0.31,0.08
			c0.04,0.01,0.22,0.1,0.09,0.03c0.26,0.13,0.25,0.12,0.41,0.29c0.18,0.19-0.1-0.13,0.07,0.07c0.02,0.03,0.16,0.31,0.1,0.15
			c0.29,0.75,1.01,1.28,1.85,1.05C129.73,10.32,130.35,9.43,130.06,8.67L130.06,8.67z"/>
	</g>
</g>
<g>
	<g>
		<path class="st11" d="M114.96,16.46c1.01,0.6,2.03,1.2,2.89,2.02c0.93,0.89,1.49,1.99,2.76,2.48c2.57,1,4.86-0.78,6.46-2.6
			c0.68-0.78,1.36-1.64,2.32-2.1c0.63-0.3,1.28-0.46,1.79-0.97c0.48-0.47,0.73-1.09,0.84-1.74c0.22-1.34,0.26-2.81-0.75-3.87
			c-0.37-0.39-0.85-0.66-1.24-1.04c-0.42-0.41-0.71-0.86-0.97-1.39c-0.79,0.61-1.57,1.21-2.36,1.82c0.72,0.7,1.25,1.47,1.68,2.37
			c0.35,0.73,1.39,0.92,2.05,0.54c0.75-0.44,0.89-1.32,0.54-2.05c-0.53-1.11-1.27-2.12-2.15-2.98c-1.26-1.23-3.1,0.32-2.36,1.82
			c0.45,0.91,1.09,1.73,1.87,2.38c0.38,0.31,0.82,0.54,0.82,0.79c0,0.36-0.03,0.71-0.08,1.06c-0.03,0.19-0.09,0.2-0.06,0.18
			c-0.07,0.07-0.35,0.15-0.44,0.19c-0.48,0.2-0.95,0.4-1.38,0.7c-0.87,0.6-1.57,1.37-2.26,2.17c-0.81,0.92-2.51,2.92-3.75,1.53
			c-0.64-0.72-1.2-1.44-1.97-2.05c-0.87-0.69-1.81-1.28-2.76-1.85C114.82,12.87,113.31,15.47,114.96,16.46L114.96,16.46z"/>
	</g>
</g>
<g>
	<g>
		<path class="st11" d="M125.96,8.17c-1.74,0.01-3.16,1.03-4.57,1.93c-0.66,0.42-1.33,0.85-1.99,1.27c-0.8,0.51-1.49,1.04-1.68,2.03
			c-0.15,0.74-0.16,1.61,0.09,2.33c0.35,0.99,1.16,1.44,2.04,1.9c0.7,0.36,1.44,0.86,2.22,1.03c0.99,0.21,1.88-0.31,2.67-0.83
			c1.24-0.81,2.33-1.84,3.49-2.75c0.31-0.24,0.9-0.65,1.36-0.92c0.38-0.22,0.74-0.46,0.96-0.85c0.38-0.67,0.26-1.47-0.24-2.04
			c-0.49-0.55-1.21-1.03-1.83-1.43c-0.95-0.6-1.94-0.57-2.94-0.12c-1.25,0.56-2.58,1.27-3.49,2.31c-0.64,0.73-1.2,1.61-1.14,2.61
			c0.06,1.09,0.94,1.94,1.99,2.12c2.06,0.36,3.6-1.68,4.63-3.18c0.34-0.5,0.25-1.42-0.23-1.82c-1.43-1.16-3.31-1.07-5.06-0.85
			c-0.92,0.11-1.83,0.28-2.72,0.54c-0.98,0.29-1.93,0.71-2.23,1.78c-0.57,2.02,1.35,3.37,3.09,3.69c1.05,0.19,2.13-0.05,2.73-1.01
			c0.62-1,0.27-2.21-0.66-2.85c-0.67-0.46-1.66-0.13-2.05,0.54c-0.43,0.74-0.13,1.6,0.54,2.05c-0.5-0.42-0.64-0.84-0.42-1.26
			c0.15-0.26,0.34-0.39,0.58-0.39c-0.04,0.06-0.21-0.04-0.32-0.07c-0.17-0.05-0.35-0.1-0.51-0.17c0.3,0.13-0.38-0.25-0.11-0.06
			c0.06,0.11,0.06,0.12,0.01,0.03c-0.05-0.09-0.05-0.08,0.02,0.04c-0.02,0.26-0.04,0.82-0.45,0.76c0.13,0.02,0.37-0.12,0.5-0.16
			c0.24-0.07,0.49-0.14,0.73-0.2c0.84-0.21,1.57-0.32,2.41-0.36c0.42-0.02,0.84-0.01,1.26-0.01c0.19,0.02,0.21,0.02,0.08-0.01
			c0.1,0.02,0.21,0.04,0.31,0.06c0.17,0.06,0.2,0.06,0.08,0.01c0.15,0.1,0.18,0.1,0.08,0.02c-0.08-0.61-0.16-1.21-0.23-1.82
			c-0.27,0.4-0.53,0.73-0.87,1.08c-0.16,0.17-0.33,0.35-0.51,0.5c-0.2,0.18,0.25-0.14-0.15,0.12c-0.13,0.09-0.13,0.02-0.08,0.05
			c0.03,0.02,0.19,0.02,0.23,0.03c-0.2-0.03-0.07-0.07-0.02,0.01c0.09,0.09,0.17,0.18,0.26,0.27c0.03,0.12,0.06,0.24,0.09,0.36
			c0.04,0.11-0.08,0.15,0.02,0.06c0.06-0.05,0.12-0.19,0.16-0.27c0.13-0.21-0.11,0.12,0.04-0.07c0.15-0.18,0.32-0.34,0.49-0.5
			c0.04-0.03,0.18-0.16,0.06-0.06c0.08-0.06,0.17-0.12,0.26-0.18c0.18-0.12,0.36-0.23,0.54-0.34c0.39-0.23,0.8-0.43,1.2-0.64
			c0.03-0.01,0.3-0.15,0.18-0.09c0.05-0.02,0.25-0.05,0.09-0.04c-0.23,0.01,0.03,0.08,0.16,0.17c0.36,0.25,0.81,0.51,1.09,0.86
			c-0.13-0.22-0.26-0.44-0.39-0.66c0.01,0.04,0.02,0.07,0.03,0.11c0-0.27,0-0.53,0-0.8c0.49-0.52,0.57-0.68,0.24-0.47
			c-0.1,0.06-0.19,0.11-0.29,0.17c-0.14,0.09-0.28,0.18-0.42,0.28c-0.39,0.26-0.75,0.55-1.12,0.83c-0.62,0.49-1.22,1.01-1.83,1.51
			c-0.48,0.39-0.99,0.78-1.61,1.15c-0.1,0.06-0.19,0.11-0.29,0.17c-0.17,0.08-0.2,0.1-0.11,0.06c-0.05-0.09,0.67,0.18,0.23-0.04
			c-0.42-0.21-0.84-0.44-1.26-0.65c-0.18-0.09-0.36-0.18-0.54-0.28c-0.1-0.05-0.38-0.28-0.2-0.05c0.13,0.16,0-0.18,0.02,0.03
			c-0.02-0.18-0.01-0.36,0-0.54c0.01-0.26,0.1-0.22-0.04-0.07c-0.1,0.12-0.19,0.15-0.01,0.05c0.4-0.23,0.78-0.5,1.16-0.74
			c0.77-0.49,1.54-0.99,2.31-1.48c0.67-0.42,1.25-0.78,1.9-0.79c0.81,0,1.5-0.69,1.5-1.5C127.46,8.86,126.77,8.17,125.96,8.17
			L125.96,8.17z"/>
	</g>
</g>
</svg>
