<?xml version="1.0" standalone="no"?>
<!DOCTYPE svg PUBLIC "-//W3C//DTD SVG 20010904//EN"
 "http://www.w3.org/TR/2001/REC-SVG-20010904/DTD/svg10.dtd">
<svg version="1.0" xmlns="http://www.w3.org/2000/svg"
 width="700.000000pt" height="700.000000pt" viewBox="0 0 700.000000 700.000000"
 preserveAspectRatio="xMidYMid meet">
<metadata>
Created by potrace 1.14, written by Peter Selinger 2001-2017
</metadata>
<g transform="translate(0.000000,700.000000) scale(0.100000,-0.100000)"
fill="#000000" stroke="none">
<path d="M3278 6995 c-2 -1 -43 -6 -91 -10 -48 -3 -96 -8 -106 -10 -10 -2 -42
-6 -72 -10 -218 -27 -620 -134 -794 -210 -16 -7 -46 -19 -65 -26 -81 -32 -376
-184 -477 -246 -249 -154 -459 -322 -666 -533 -322 -329 -557 -681 -737 -1105
-69 -163 -169 -482 -194 -620 -3 -16 -8 -40 -10 -52 -3 -11 -8 -43 -12 -70 -5
-26 -9 -50 -9 -53 -1 -3 -5 -32 -9 -65 -5 -33 -10 -69 -12 -80 -19 -100 -26
-555 -11 -705 4 -41 9 -100 12 -130 33 -334 173 -801 340 -1130 85 -170 127
-242 217 -378 245 -368 540 -672 894 -922 143 -102 190 -132 269 -175 28 -15
55 -31 60 -35 21 -16 254 -130 350 -170 223 -95 563 -192 790 -225 17 -2 48
-7 70 -11 88 -15 122 -17 455 -20 190 -1 381 2 425 7 518 59 1019 233 1455
504 65 40 224 147 230 155 3 3 21 17 40 30 39 28 44 32 150 121 111 94 227
205 340 328 135 147 302 376 418 572 175 296 342 717 396 999 2 14 11 57 19
95 9 39 18 88 21 110 3 22 13 85 20 140 11 75 14 189 12 460 -1 198 -5 369 -8
380 -3 11 -9 47 -13 80 -4 32 -8 66 -10 75 -2 8 -10 53 -19 100 -22 118 -22
115 -46 210 -89 347 -243 700 -444 1015 -45 72 -172 252 -186 265 -3 3 -48 57
-102 120 -449 535 -1079 932 -1768 1114 -52 14 -106 27 -120 30 -14 2 -56 11
-95 19 -66 15 -122 24 -190 33 -88 11 -134 16 -170 21 -46 5 -542 13 -547 8z"/>
</g>
</svg>
